<?xml version="1.0" encoding="UTF-8"?><svg xmlns="http://www.w3.org/2000/svg" viewBox="0 0 512 512"><defs><style>.cls-1{fill:#5e6b7e;}.cls-2{fill:#062b54;}.cls-3{fill:#fff;}.cls-4{fill:#1e7a8c;}</style></defs><rect class="cls-3" width="512" height="512"/><g id="Favicon"><rect class="cls-2" x="107.968" y="217.36" width="77.279" height="77.279"/><circle class="cls-2" cx="258.012" cy="256" r="33.659"/><polygon class="cls-2" points="78.039 229.749 78.039 169.563 183.091 50.987 278.229 50.987 278.229 6.122 162.899 6.121 33.174 152.547 33.173 229.749 78.039 229.749"/><polygon class="cls-2" points="78.037 339.934 78.038 279.749 33.173 279.749 33.172 356.949 162.896 503.377 278.229 503.378 278.229 458.513 183.089 458.512 78.037 339.934"/><polygon class="cls-1" points="433.963 169.566 433.962 229.751 478.827 229.751 478.828 152.55 349.104 6.123 328.229 6.122 328.229 50.988 328.911 50.988 433.963 169.566"/><polygon class="cls-1" points="433.961 279.751 433.961 339.937 328.909 458.514 328.229 458.514 328.229 503.379 349.101 503.379 478.826 356.952 478.827 279.751 433.961 279.751"/><rect class="cls-2" x="242.687" y="192.864" width="30" height="126.271" transform="translate(513.687 -1.687) rotate(90)"/><rect class="cls-2" x="266.295" y="168.437" width="30" height="93.374" transform="translate(198.722 -129.241) rotate(39.109)"/><rect class="cls-2" x="266.295" y="250.153" width="30" height="93.374" transform="translate(-124.221 243.945) rotate(-39.109)"/><circle class="cls-4" cx="337.894" cy="363.741" r="35"/><circle class="cls-4" cx="337.894" cy="147.664" r="35"/><rect class="cls-4" x="330.777" y="217.36" width="77.279" height="77.279"/></g></svg>